# xmcd
#
# Track frame offsets:
#	150
#	12432
#	20335
#	32590
#	44687
#	57392
#	73700
#	90395
#	101410
#	111895
#	120992
#	133007
#	143507
#	154732
#	164300
#	176755
#	187002
#	198945
#	209915
#	221480
#
# Disc length: 3094 seconds
#
# Revision: 0
# Processed by: cddbd v1.4PL0 Copyright (c) Steve Scherf et al.
# Submitted via: dBpowerAMP V4.0
#
DISCID=1e0c1414
DTITLE=Banda Sinaloense muy de Sonora - 20 exitos
DYEAR=1900
DGENRE=Ranchera
TTITLE0=El Capirote
TTITLE1=El Novillo Despuntado
TTITLE2=Mi Gusto Es
TTITLE3=La Palma
TTITLE4=Que Sacrificio
TTITLE5=6.Caminos de Michoacán
TTITLE6=El Pescado Nadador
TTITLE7=El Chubasco
TTITLE8=Con la Sangre Caliente
TTITLE9=San Juan del Río
TTITLE10=Mi Ranchito
TTITLE11=El Moro de Cumpas
TTITLE12=El Sinaloense
TTITLE13=La Mula Bronca
TTITLE14=La Ley del Monte
TTITLE15=El Sauce y La Palma
TTITLE16=El Muchacho Alegre
TTITLE17=La Parra
TTITLE18=El Costeño
TTITLE19=El Zopilote Mojado
EXTD=
EXTT0=
EXTT1=
EXTT2=
EXTT3=
EXTT4=
EXTT5=
EXTT6=
EXTT7=
EXTT8=
EXTT9=
EXTT10=
EXTT11=
EXTT12=
EXTT13=
EXTT14=
EXTT15=
EXTT16=
EXTT17=
EXTT18=
EXTT19=
PLAYORDER=
